<?xml version="1.0" encoding="UTF-8"?>
<svg version="1.1" xmlns="http://www.w3.org/2000/svg" width="48" height="48">
<path d="M0 0 C3.21812047 2.64601016 5.47319881 5.12696762 7 9 C7.22179703 15.8017755 5.68521646 21.81232728 3 28 C3.73605469 28.17015625 4.47210938 28.3403125 5.23046875 28.515625 C15.09580973 30.96567005 15.09580973 30.96567005 19 35 C20 37 20 37 20 44 C4.16 44 -11.68 44 -28 44 C-27 37 -27 37 -24.5 34.3125 C-20.69258939 31.50801706 -16.37222241 29.73917292 -12 28 C-12 26.35 -12 24.7 -12 23 C-12.66 23 -13.32 23 -14 23 C-14.13277344 22.28972656 -14.26554688 21.57945313 -14.40234375 20.84765625 C-14.57894531 19.92855469 -14.75554688 19.00945313 -14.9375 18.0625 C-15.11152344 17.14597656 -15.28554687 16.22945312 -15.46484375 15.28515625 C-15.77714988 13.04710156 -15.77714988 13.04710156 -17 12 C-16.66213144 7.52324164 -16.37024634 4.13781556 -13 1 C-8.38781078 -1.20127213 -4.91885837 -1.34150683 0 0 Z " fill="#A87751" transform="translate(28,3)"/>
<path d="M0 0 C0.33 0.66 0.66 1.32 1 2 C2.73015349 2.52833546 4.48596083 2.97408201 6.25 3.375 C10.68939459 4.51079316 13.73876857 5.63006086 17 9 C18 11 18 11 18 18 C10.74 18 3.48 18 -4 18 C-4 12 -4 12 -2 9 C-2 8.01 -2 7.02 -2 6 C-1.36893571 3.98848259 -0.70626239 1.98636298 0 0 Z " fill="#B4AAB2" transform="translate(30,29)"/>
<path d="M0 0 C0.41572266 0.95712891 0.41572266 0.95712891 0.83984375 1.93359375 C1.20207031 2.75988281 1.56429688 3.58617187 1.9375 4.4375 C2.29714844 5.26121094 2.65679688 6.08492187 3.02734375 6.93359375 C3.83122323 8.94410117 3.83122323 8.94410117 5 10 C5 11.98 5 13.96 5 16 C-2.59 16 -10.18 16 -18 16 C-17 9 -17 9 -14.5 6.3125 C-10.52633569 3.39976548 -5.02603384 0 0 0 Z " fill="#AA9FA7" transform="translate(18,31)"/>
<path d="M0 0 C3.10249282 2.55093854 5.78315365 5.10609167 7 9 C6.8125 11.625 6.8125 11.625 6 14 C5.01 14.66 4.02 15.32 3 16 C2.566875 14.88625 2.13375 13.7725 1.6875 12.625 C0.30088881 8.82487666 0.30088881 8.82487666 -3 7 C-7.14776273 6.71337567 -7.14776273 6.71337567 -11 8 C-11.68729254 10.11846285 -11.68729254 10.11846285 -12.125 12.5625 C-12.29257813 13.38878906 -12.46015625 14.21507812 -12.6328125 15.06640625 C-12.75398437 15.70449219 -12.87515625 16.34257812 -13 17 C-15.64701022 15.67649489 -16.04357118 14.79571502 -17 12 C-16.75922789 7.50558721 -16.37074819 4.1382828 -13 1 C-8.38781078 -1.20127213 -4.91885837 -1.34150683 0 0 Z " fill="#77645D" transform="translate(28,3)"/>
<path d="M0 0 C3.3 0 6.6 0 10 0 C10.33 1.65 10.66 3.3 11 5 C9.68 5 8.36 5 7 5 C7 6.32 7 7.64 7 9 C8.32 9 9.64 9 11 9 C11.33 8.34 11.66 7.68 12 7 C12 9.64 12 12.28 12 15 C10.35 14.67 8.7 14.34 7 14 C7 14.66 7 15.32 7 16 C7.99 16 8.98 16 10 16 C10 16.99 10 17.98 10 19 C7.69 19 5.38 19 3 19 C3 18.34 3 17.68 3 17 C3.66 17 4.32 17 5 17 C5 16.34 5 15.68 5 15 C3.35 15 1.7 15 0 15 C-0.66 13.02 -1.32 11.04 -2 9 C-0.02 9 1.96 9 4 9 C4 8.01 4 7.02 4 6 C2.35 5.67 0.7 5.34 -1 5 C-0.67 3.35 -0.34 1.7 0 0 Z " fill="#E6A16E" transform="translate(18,11)"/>
<path d="M0 0 C0.33 0.66 0.66 1.32 1 2 C2.73015349 2.52833546 4.48596083 2.97408201 6.25 3.375 C10.68939459 4.51079316 13.73876857 5.63006086 17 9 C18.4783226 11.95664519 18.06032783 14.74229737 18 18 C15.36 18 12.72 18 10 18 C9.731875 16.9275 9.46375 15.855 9.1875 14.75 C8.12368849 11.39059522 7.16633521 9.65868412 5 7 C5 6.34 5 5.68 5 5 C4.01 5 3.02 5 2 5 C1.67 5.66 1.34 6.32 1 7 C0.67 4.69 0.34 2.38 0 0 Z " fill="#A39BA4" transform="translate(30,29)"/>
<path d="M0 0 C0.33 0.66 0.66 1.32 1 2 C-1.64 2 -4.28 2 -7 2 C-7.33 3.65 -7.66 5.3 -8 7 C-6.35 7.33 -4.7 7.66 -3 8 C-3 8.99 -3 9.98 -3 11 C-4.65 11.33 -6.3 11.66 -8 12 C-7.67 13.65 -7.34 15.3 -7 17 C-5.35 17 -3.7 17 -2 17 C-2 17.66 -2 18.32 -2 19 C-2.66 19 -3.32 19 -4 19 C-4 19.99 -4 20.98 -4 22 C-2.02 22 -0.04 22 2 22 C0 24 0 24 -3.625 24.125 C-4.73875 24.08375 -5.8525 24.0425 -7 24 C-7.66 21.69 -8.32 19.38 -9 17 C-9.66 17 -10.32 17 -11 17 C-11.625 13.625 -11.625 13.625 -12 10 C-11.34 9.34 -10.68 8.68 -10 8 C-9.67 6.824375 -9.34 5.64875 -9 4.4375 C-8.505 2.7359375 -8.505 2.7359375 -8 1 C-5.29120665 -0.35439668 -2.99066732 -0.06501451 0 0 Z " fill="#915D3C" transform="translate(25,9)"/>
<path d="M0 0 C0.66 1.65 1.32 3.3 2 5 C-1.28976808 6.09658936 -2.71303767 5.79953138 -6 5 C-6.66 6.65 -7.32 8.3 -8 10 C-8.33 9.34 -8.66 8.68 -9 8 C-9.99 8.33 -10.98 8.66 -12 9 C-13.22969878 12.51190809 -13.22969878 12.51190809 -14 16 C-15.32 16 -16.64 16 -18 16 C-17.82876873 11.63360251 -17.52237986 9.56155835 -14.5 6.3125 C-10.52633569 3.39976548 -5.02603384 0 0 0 Z " fill="#847C88" transform="translate(18,31)"/>
<path d="M0 0 C1.051875 -0.00386719 1.051875 -0.00386719 2.125 -0.0078125 C4 0.125 4 0.125 6 1.125 C6 1.785 6 2.445 6 3.125 C6.66 3.125 7.32 3.125 8 3.125 C8 4.115 8 5.105 8 6.125 C8.66 6.125 9.32 6.125 10 6.125 C10 7.445 10 8.765 10 10.125 C9.34 10.125 8.68 10.125 8 10.125 C7.2575 9.3 6.515 8.475 5.75 7.625 C3.23239299 4.89695443 3.23239299 4.89695443 0 4.5625 C-3.61872485 5.24101091 -5.3473474 6.62838578 -8 9.125 C-8 7.145 -8 5.165 -8 3.125 C-7.34 3.125 -6.68 3.125 -6 3.125 C-6 2.465 -6 1.805 -6 1.125 C-3.75487738 0.00243869 -2.48543351 -0.00913762 0 0 Z " fill="#36241A" transform="translate(22,4.875)"/>
<path d="M0 0 C0.33 0 0.66 0 1 0 C1 2.64 1 5.28 1 8 C-0.65 7.67 -2.3 7.34 -4 7 C-4 7.66 -4 8.32 -4 9 C-3.01 9 -2.02 9 -1 9 C-1 9.99 -1 10.98 -1 12 C-3.31 12 -5.62 12 -8 12 C-8 11.34 -8 10.68 -8 10 C-7.34 10 -6.68 10 -6 10 C-6 9.34 -6 8.68 -6 8 C-7.65 8 -9.3 8 -11 8 C-11.66 6.02 -12.32 4.04 -13 2 C-9.535 1.505 -9.535 1.505 -6 1 C-6 2.65 -6 4.3 -6 6 C-5.01 5.67 -4.02 5.34 -3 5 C-2.01 5.33 -1.02 5.66 0 6 C0 4.02 0 2.04 0 0 Z " fill="#C78754" transform="translate(29,18)"/>
<path d="M0 0 C0.33 0.66 0.66 1.32 1 2 C2.73015349 2.52833546 4.48596083 2.97408201 6.25 3.375 C10.68939459 4.51079316 13.73876857 5.63006086 17 9 C18.4783226 11.95664519 18.06032783 14.74229737 18 18 C17.01 18 16.02 18 15 18 C15 15.69 15 13.38 15 11 C14.34 10.67 13.68 10.34 13 10 C13 9.34 13 8.68 13 8 C9.37 7.01 5.74 6.02 2 5 C1.67 5.66 1.34 6.32 1 7 C0.67 4.69 0.34 2.38 0 0 Z " fill="#908791" transform="translate(30,29)"/>
<path d="M0 0 C0.8971875 0.309375 0.8971875 0.309375 1.8125 0.625 C1.8125 2.605 1.8125 4.585 1.8125 6.625 C-1.8175 6.625 -5.4475 6.625 -9.1875 6.625 C-9.1875 5.965 -9.1875 5.305 -9.1875 4.625 C-8.1975 4.625 -7.2075 4.625 -6.1875 4.625 C-5.8575 3.635 -5.5275 2.645 -5.1875 1.625 C-2.1875 -0.375 -2.1875 -0.375 0 0 Z " fill="#B0A5AA" transform="translate(21.1875,40.375)"/>
<path d="M0 0 C3.12910551 3.12910551 4.44296341 5.65511458 5 10 C4.67 10.66 4.34 11.32 4 12 C3.01 12 2.02 12 1 12 C0.67 10.35 0.34 8.7 0 7 C-1.32 7 -2.64 7 -4 7 C-4 5.68 -4 4.36 -4 3 C-2.68 3 -1.36 3 0 3 C0 2.01 0 1.02 0 0 Z " fill="#9A6340" transform="translate(29,13)"/>
<path d="M0 0 C0.66 1.65 1.32 3.3 2 5 C-1.28976808 6.09658936 -2.71303767 5.79953138 -6 5 C-6.66 6.65 -7.32 8.3 -8 10 C-10 7 -10 7 -10.0625 5 C-8.19346827 1.48182264 -3.89430369 0 0 0 Z " fill="#968C94" transform="translate(18,31)"/>
<path d="M0 0 C0.33 0.66 0.66 1.32 1 2 C-1.64 2 -4.28 2 -7 2 C-7.33 3.65 -7.66 5.3 -8 7 C-6.35 7.33 -4.7 7.66 -3 8 C-3 8.99 -3 9.98 -3 11 C-4.98 11 -6.96 11 -9 11 C-9.08096803 9.54257537 -9.13917774 8.08387193 -9.1875 6.625 C-9.22230469 5.81289062 -9.25710938 5.00078125 -9.29296875 4.1640625 C-9.19628906 3.44992187 -9.09960938 2.73578125 -9 2 C-5.5647952 -0.29013653 -4.014669 -0.17842973 0 0 Z " fill="#A2673E" transform="translate(25,9)"/>
<path d="M0 0 C0.33 0.66 0.66 1.32 1 2 C0.34 2 -0.32 2 -1 2 C-0.4740625 2.7425 -0.4740625 2.7425 0.0625 3.5 C1.46011601 7.22697603 0.65032859 10.09802848 0 14 C-2.64701022 12.67649489 -3.04357118 11.79571502 -4 9 C-3.8125 5.375 -3.8125 5.375 -3 2 C-2.01 1.34 -1.02 0.68 0 0 Z " fill="#5D4B41" transform="translate(15,6)"/>
<path d="M0 0 C3.3 0 6.6 0 10 0 C10.33 1.65 10.66 3.3 11 5 C10.01 5 9.02 5 8 5 C8 4.01 8 3.02 8 2 C6.02 2 4.04 2 2 2 C2 2.99 2 3.98 2 5 C1.01 5 0.02 5 -1 5 C-0.67 3.35 -0.34 1.7 0 0 Z " fill="#D08C57" transform="translate(18,11)"/>
<path d="M0 0 C2.31 0 4.62 0 7 0 C6.01 2.97 5.02 5.94 4 9 C1.36 8.01 -1.28 7.02 -4 6 C-4 5.67 -4 5.34 -4 5 C-1.69 5 0.62 5 3 5 C3 4.01 3 3.02 3 2 C2.01 2 1.02 2 0 2 C0 1.34 0 0.68 0 0 Z " fill="#92613F" transform="translate(25,25)"/>
<path d="M0 0 C2.375 0.25 2.375 0.25 5 1 C6.8642072 3.37262734 7.02750226 4.61496834 6.8125 7.625 C6 10 6 10 3 12 C3.33 9.36 3.66 6.72 4 4 C3.34 4 2.68 4 2 4 C2 3.01 2 2.02 2 1 C1.34 0.67 0.68 0.34 0 0 Z " fill="#58463F" transform="translate(28,7)"/>
<path d="M0 0 C2.97 0 5.94 0 9 0 C8.01 0.495 8.01 0.495 7 1 C6.53476937 2.89533342 6.53476937 2.89533342 6.375 5.0625 C6.189375 7.0115625 6.189375 7.0115625 6 9 C5.01 9 4.02 9 3 9 C2.690625 7.88625 2.38125 6.7725 2.0625 5.625 C1.17673517 2.2054845 1.17673517 2.2054845 0 0 Z " fill="#4A3E39" transform="translate(20,38)"/>
<path d="M0 0 C1.65 0 3.3 0 5 0 C5 0.66 5 1.32 5 2 C4.34 2 3.68 2 3 2 C3 2.99 3 3.98 3 5 C4.98 5 6.96 5 9 5 C7 7 7 7 3.375 7.125 C2.26125 7.08375 1.1475 7.0425 0 7 C0 4.69 0 2.38 0 0 Z " fill="#7E4D2D" transform="translate(18,26)"/>
<path d="M0 0 C0.66 0 1.32 0 2 0 C2.33 1.98 2.66 3.96 3 6 C1.35 6.33 -0.3 6.66 -2 7 C-2 3.89448334 -1.4606285 2.64738916 0 0 Z " fill="#A79B9F" transform="translate(29,33)"/>
<path d="M0 0 C0.66 0.33 1.32 0.66 2 1 C1.67 2.98 1.34 4.96 1 7 C0.01 7 -0.98 7 -2 7 C-2 5.02 -2 3.04 -2 1 C-1.34 0.67 -0.68 0.34 0 0 Z " fill="#A77048" transform="translate(32,18)"/>
<path d="M0 0 C0.33 0.99 0.66 1.98 1 3 C2.32 3 3.64 3 5 3 C5 4.32 5 5.64 5 7 C3.35 7 1.7 7 0 7 C0 4.69 0 2.38 0 0 Z " fill="#D89764" transform="translate(24,17)"/>
<path d="M0 0 C1.65 0.33 3.3 0.66 5 1 C5 1.99 5 2.98 5 4 C2.69 4 0.38 4 -2 4 C-2 3.34 -2 2.68 -2 2 C-1.34 2 -0.68 2 0 2 C0 1.34 0 0.68 0 0 Z " fill="#B7764A" transform="translate(23,26)"/>
<path d="M0 0 C0.99 0 1.98 0 3 0 C3 0.99 3 1.98 3 3 C2.05125 3.45375 1.1025 3.9075 0.125 4.375 C-3.00313679 5.80238254 -3.00313679 5.80238254 -5 8 C-4.75 5.625 -4.75 5.625 -4 3 C-1.9375 1.6875 -1.9375 1.6875 0 1 C0 0.67 0 0.34 0 0 Z " fill="#26170D" transform="translate(19,6)"/>
<path d="M0 0 C0.66 0.33 1.32 0.66 2 1 C1.835 1.598125 1.67 2.19625 1.5 2.8125 C0.8885876 5.11344336 0.8885876 5.11344336 1 8 C0.01 8 -0.98 8 -2 8 C-1.125 1.125 -1.125 1.125 0 0 Z " fill="#9A8F98" transform="translate(6,39)"/>
</svg>
